<svg width="216" height="193" viewBox="0 0 216 193" fill="none" xmlns="http://www.w3.org/2000/svg">
<path d="M192.434 106.237C194.684 121.107 166.029 137.794 128.415 143.488C90.8007 149.181 58.4863 141.752 56.2362 126.868C55.3552 121.026 59.2318 114.912 66.5378 109.3C77.856 100.598 97.4018 93.0877 120.255 89.6174C157.869 83.9241 190.184 91.3526 192.434 106.237Z" fill="#F90808"/>
<path d="M49.7296 83.9104L66.5374 109.314L56.2358 126.882L30.2108 91.4067C30.2108 91.4067 -5.54644 82.7176 1.58333 41.4948C8.71309 0.272037 29.2891 54.1422 29.2891 54.1422L45.0939 14.3428C45.0939 14.3428 61.1155 24.4147 56.1816 41.0068C51.2342 57.5989 49.716 83.9239 49.716 83.9239L49.7296 83.9104Z" fill="#F90808"/>
<path d="M175.802 67.9554L167.262 97.1949L182.308 110.927L196.662 69.338C196.662 69.338 228.245 50.4415 209.214 13.1905C190.183 -24.074 186.496 33.4833 186.496 33.4833L159.604 0.149902C159.604 0.149902 147.283 14.5189 156.92 28.9015C166.558 43.284 175.802 67.9824 175.802 67.9824V67.9554Z" fill="#F90808"/>
<path d="M63.9893 137.076L40.6074 156.786L66.1716 192.491L54.1892 159.456L80.1736 134.622" fill="#F90808"/>
<path d="M177.51 119.874L205.677 131.775L191.837 173.459L193.491 138.35L161.326 122.327" fill="#F90808"/>
</svg>
