<svg width="258" height="238" viewBox="0 0 258 238" fill="none" xmlns="http://www.w3.org/2000/svg">
<path d="M62.789 58.1847C62.789 58.1847 79.0546 6.6732 89.8983 1.25093C100.742 -4.17133 110.827 58.1847 110.827 58.1847H174.263L129.207 101.563C129.207 101.563 164.449 134.096 163.094 146.297C161.738 158.497 92.6093 125.963 92.6093 125.963C92.6093 125.963 23.2635 165.302 22.0164 156.477C20.7694 147.652 41.1015 106.985 41.1015 106.985C41.1015 106.985 -2.27353 104.274 0.437409 90.7183C3.14835 77.1626 62.789 58.1847 62.789 58.1847Z" fill="#F70B4E"/>
<path d="M217.983 156.84V139L253.983 159.84L235.983 163.63C235.983 163.63 266.983 201.2 253.983 222.52C240.983 243.84 237.573 226.84 237.573 226.84C237.573 226.84 220.983 245.68 217.983 233.26C217.983 233.26 204.983 245.84 199.983 224.84C199.983 224.84 188.983 233.84 186.983 214.84C186.983 214.84 173.983 216.84 182.983 205.84C182.983 205.84 167.463 202.12 177.223 192.48C177.223 192.48 170.463 185.8 177.223 179.32C183.983 172.84 217.983 156.84 217.983 156.84Z" fill="#BA9560"/>
</svg>
