<svg width="220" height="119" viewBox="0 0 220 119" fill="none" xmlns="http://www.w3.org/2000/svg">
<g filter="url(#filter0_d_125_2)">
<path d="M38.09 106H7.524V65.052H36.64V71.896H15.064V81.524H34.842V88.136H15.064V99.098H38.09V106ZM67.96 106H44.006V65.052H51.72V99.04H67.96V106ZM125.007 85.874C125.007 93.994 121.875 102.172 113.407 104.898C109.869 106 107.027 106 103.373 106H90.3231V65.052H104.997C106.853 65.052 109.115 65.168 110.913 65.516C112.943 65.922 117.351 67.256 120.773 71.664C122.571 74.042 125.007 78.624 125.007 85.874ZM116.887 85.816C116.887 79.726 115.031 76.478 112.943 74.622C112.247 74.042 110.855 72.998 108.651 72.418C106.679 71.896 105.635 71.954 102.039 71.954H97.9791V99.098H100.009C104.127 99.098 106.563 99.04 108.419 98.75C109.463 98.576 112.363 98.112 114.451 95.56C117.003 92.312 116.887 86.338 116.887 85.816ZM169.32 85.526C169.32 88.078 169.03 95.328 163.636 101.186C162.708 102.172 160.33 104.55 156.676 105.884C155.4 106.348 153.022 107.044 149.542 107.044C143.742 107.044 139.334 105.13 135.506 100.722C131.678 96.372 130.054 91.268 130.054 85.584C130.054 84.25 130.112 81.118 131.272 77.638C133.94 69.46 140.958 64.008 149.716 64.008C157.604 64.008 162.302 68.3 164.216 70.504C166.362 72.94 169.378 77.696 169.32 85.526ZM161.606 86.338C161.664 82.974 161.026 79.378 159.17 76.42C157.024 72.94 153.776 71.026 149.658 71.026C147.106 71.026 145.25 71.838 144.438 72.244C141.538 73.81 137.942 77.638 137.942 85.294C137.942 86.86 138 94.4 143.742 98.17C146.236 99.794 148.73 99.91 149.774 99.91C150.586 99.91 152.442 99.852 154.472 98.924C157.488 97.532 161.432 94.052 161.606 86.338ZM214.53 106H207.048L207.802 72.36L198.928 106H192.026L183.152 72.36L183.906 106H176.424V65.052H187.56L195.564 95.444L203.452 65.052H214.53V106Z" fill="white"/>
</g>
<g filter="url(#filter1_d_125_2)">
<path d="M31.132 19.476H20.992V50H14.128V19.476H4.144V13.288H31.132V19.476ZM67.7156 31.644C67.7156 33.932 67.4556 40.432 62.6196 45.684C61.7876 46.568 59.6556 48.7 56.3796 49.896C55.2356 50.312 53.1036 50.936 49.9836 50.936C44.7836 50.936 40.8316 49.22 37.3996 45.268C33.9676 41.368 32.5116 36.792 32.5116 31.696C32.5116 30.5 32.5636 27.692 33.6036 24.572C35.9956 17.24 42.2876 12.352 50.1396 12.352C57.2116 12.352 61.4236 16.2 63.1396 18.176C65.0636 20.36 67.7676 24.624 67.7156 31.644ZM60.7996 32.372C60.8516 29.356 60.2796 26.132 58.6156 23.48C56.6916 20.36 53.7796 18.644 50.0876 18.644C47.7996 18.644 46.1356 19.372 45.4076 19.736C42.8076 21.14 39.5836 24.572 39.5836 31.436C39.5836 32.84 39.6356 39.6 44.7836 42.98C47.0196 44.436 49.2556 44.54 50.1916 44.54C50.9196 44.54 52.5836 44.488 54.4036 43.656C57.1076 42.408 60.6436 39.288 60.7996 32.372ZM110.693 44.852L108.769 51.456C108.405 51.352 107.885 51.248 107.157 50.988C105.857 50.468 103.569 49.22 100.917 46.932C96.6008 50.676 91.0888 50.936 89.3208 50.936C82.4568 50.936 78.4528 47.504 76.7368 45.528C74.8128 43.396 72.0048 38.768 72.0048 31.644C72.0048 26.86 73.3048 22.024 76.3728 18.28C81.0008 12.716 86.9288 12.352 89.4768 12.352C91.4008 12.352 96.2368 12.508 100.553 16.044C105.025 19.632 107.053 25.508 107.053 31.072C107.053 33.88 106.377 37.884 105.233 40.588C105.129 40.796 104.765 41.524 104.401 42.2C104.609 42.668 104.869 42.98 105.337 43.344C106.377 44.124 108.613 44.956 109.965 44.956C110.277 44.956 110.225 44.956 110.693 44.852ZM99.6688 31.592C99.6688 29.98 99.5648 23.584 94.3128 20.36C93.5848 19.944 91.7128 18.904 89.3208 18.904C87.8648 18.904 85.0568 19.268 82.6128 22.076C81.3128 23.636 79.3368 26.808 79.3368 31.852C79.3368 32.632 79.3888 34.296 79.9608 36.272C81.2608 40.848 84.8488 44.384 89.8408 44.384C92.3888 44.384 94.5728 43.5 96.2888 41.576C97.6408 40.068 99.6688 36.688 99.6688 31.592ZM143.998 34.452C143.998 38.664 144.05 40.432 143.374 42.512C142.178 46.204 137.966 50.936 128.97 50.936C124.654 50.936 120.338 49.896 117.322 46.568C116.854 46.1 115.606 44.592 114.982 42.616C114.41 40.744 114.41 39.028 114.41 35.128V13.288H121.326V35.856C121.326 38.04 121.326 38.82 121.69 39.912C122.366 42.096 124.342 44.28 129.23 44.28C130.114 44.28 135.158 44.28 136.666 40.12C137.082 38.924 137.134 37.936 137.134 35.492V13.288H143.998V34.452ZM179.593 50H152.189V13.288H178.293V19.424H158.949V28.056H176.681V33.984H158.949V43.812H179.593V50ZM213.289 50H207.257L191.189 24.26L191.605 50H184.897V13.288H191.085L207.361 39.184L206.529 13.288H213.289V50Z" fill="white"/>
</g>
<defs>
<filter id="filter0_d_125_2" x="3.52405" y="64.0078" width="215.006" height="51.0361" filterUnits="userSpaceOnUse" color-interpolation-filters="sRGB">
<feFlood flood-opacity="0" result="BackgroundImageFix"/>
<feColorMatrix in="SourceAlpha" type="matrix" values="0 0 0 0 0 0 0 0 0 0 0 0 0 0 0 0 0 0 127 0" result="hardAlpha"/>
<feOffset dy="4"/>
<feGaussianBlur stdDeviation="2"/>
<feComposite in2="hardAlpha" operator="out"/>
<feColorMatrix type="matrix" values="0 0 0 0 0 0 0 0 0 0 0 0 0 0 0 0 0 0 0.25 0"/>
<feBlend mode="normal" in2="BackgroundImageFix" result="effect1_dropShadow_125_2"/>
<feBlend mode="normal" in="SourceGraphic" in2="effect1_dropShadow_125_2" result="shape"/>
</filter>
<filter id="filter1_d_125_2" x="0.144043" y="12.3521" width="217.145" height="47.104" filterUnits="userSpaceOnUse" color-interpolation-filters="sRGB">
<feFlood flood-opacity="0" result="BackgroundImageFix"/>
<feColorMatrix in="SourceAlpha" type="matrix" values="0 0 0 0 0 0 0 0 0 0 0 0 0 0 0 0 0 0 127 0" result="hardAlpha"/>
<feOffset dy="4"/>
<feGaussianBlur stdDeviation="2"/>
<feComposite in2="hardAlpha" operator="out"/>
<feColorMatrix type="matrix" values="0 0 0 0 0 0 0 0 0 0 0 0 0 0 0 0 0 0 0.25 0"/>
<feBlend mode="normal" in2="BackgroundImageFix" result="effect1_dropShadow_125_2"/>
<feBlend mode="normal" in="SourceGraphic" in2="effect1_dropShadow_125_2" result="shape"/>
</filter>
</defs>
</svg>
