<svg width="357" height="104" viewBox="0 0 357 104" fill="none" xmlns="http://www.w3.org/2000/svg">
<g filter="url(#filter0_d_56_146)">
<path d="M57.7082 61.5164C57.7082 68.1686 54.2612 71.6157 52.0236 73.067C48.3346 75.4256 44.3433 75.486 40.1705 75.486H33.9416V90H25.9589V47.3048H40.3519C41.38 47.3048 42.4081 47.2443 43.4362 47.3048C45.3109 47.4257 50.6931 47.7886 54.5031 52.2637C57.5873 55.8317 57.7082 59.8231 57.7082 61.5164ZM49.4836 61.2745C49.4836 59.944 49.1813 58.4926 48.516 57.2831C46.7018 54.1384 43.1338 54.1384 40.0496 54.1384H33.9416V68.9548H39.6867C40.231 68.9548 40.8357 68.8943 41.38 68.8943C45.4923 68.7129 47.3065 67.4429 48.3346 65.7496C48.7579 65.0239 49.4836 63.4516 49.4836 61.2745ZM71.4965 90H63.6348V47.3048H71.4965V90ZM114.917 90H106.39L103.911 81.6545H87.8847L85.4052 90H76.8178L91.2713 47.3048H100.342L114.917 90ZM101.794 74.6394L95.9278 54.9851L90.0013 74.6394H101.794ZM153.529 90H146.514L127.827 60.065L128.311 90H120.51V47.3048H127.706L146.635 77.4212L145.667 47.3048H153.529V90ZM202.212 68.6524C202.212 71.3133 201.909 78.8726 196.285 84.9806C195.318 86.0087 192.838 88.4881 189.028 89.8791C187.698 90.3628 185.218 91.0885 181.59 91.0885C175.542 91.0885 170.946 89.0929 166.955 84.4968C162.964 79.9612 161.27 74.6394 161.27 68.7129C161.27 67.3219 161.331 64.0563 162.54 60.4278C165.322 51.9009 172.64 46.2162 181.771 46.2162C189.996 46.2162 194.894 50.6914 196.89 52.9894C199.128 55.5293 202.272 60.4883 202.212 68.6524ZM194.169 69.499C194.229 65.9915 193.564 62.2421 191.629 59.1578C189.391 55.5293 186.005 53.5337 181.711 53.5337C179.05 53.5337 177.115 54.3803 176.268 54.8037C173.244 56.4365 169.495 60.4278 169.495 68.4105C169.495 70.0433 169.555 77.905 175.542 81.8359C178.143 83.5292 180.743 83.6501 181.832 83.6501C182.678 83.6501 184.614 83.5897 186.73 82.6221C189.875 81.1707 193.987 77.5422 194.169 69.499ZM234.958 90H209.982V47.3048H218.025V82.743H234.958V90ZM249.259 90H241.398V47.3048H249.259V90ZM292.196 90H285.181L266.494 60.065L266.978 90H259.177V47.3048H266.373L285.302 77.4212L284.334 47.3048H292.196V90ZM309.734 90H301.872V47.3048H309.734V90ZM352.913 77.3003C352.913 81.1707 351.703 84.1339 348.74 86.6739C343.6 91.0281 336.705 91.0885 334.77 91.0885C332.23 91.0885 324.066 90.9676 318.14 84.7387C317.414 83.9525 316.628 82.9244 316.084 81.9568L322.796 77.3003C324.671 80.0821 328.179 83.7106 336.04 83.7106C336.403 83.7106 337.915 83.7106 339.185 83.4082C340.092 83.2268 344.265 82.0778 344.265 78.0865C344.265 77.6631 344.204 76.5141 343.479 75.5465C342.027 73.6113 338.157 73.067 336.04 72.5832L330.96 71.4342C328.783 70.9504 326.425 70.4666 324.49 69.4386C322.494 68.4105 318.382 65.6891 318.382 59.5207C318.382 58.5531 318.503 55.7712 320.014 53.2313C321.95 49.9657 326.606 46.2162 335.254 46.2162C339.064 46.2162 346.563 46.821 352.489 54.8641L345.898 59.7626C344.567 57.646 341.543 53.4127 334.831 53.4127C334.407 53.4127 329.025 53.3523 327.271 56.6784C326.909 57.3436 326.788 57.9483 326.788 58.6136C326.788 59.3393 326.969 59.944 327.332 60.5488C328.36 62.3025 330.718 62.8468 334.649 63.6935L339.064 64.661C343.116 65.5682 347.591 66.7777 350.433 70.1038C351.643 71.4342 352.913 73.3694 352.913 77.3003Z" fill="white"/>
</g>
<g filter="url(#filter1_d_56_146)">
<path d="M20.8 38H4.28V9.76H9.6V33.2H20.8V38ZM49.4141 23.88C49.4141 25.64 49.2141 30.64 45.4941 34.68C44.8541 35.36 43.2141 37 40.6941 37.92C39.8141 38.24 38.1741 38.72 35.7741 38.72C31.7741 38.72 28.7341 37.4 26.0941 34.36C23.4541 31.36 22.3341 27.84 22.3341 23.92C22.3341 23 22.3741 20.84 23.1741 18.44C25.0141 12.8 29.8541 9.04 35.8941 9.04C41.3341 9.04 44.5741 12 45.8941 13.52C47.3741 15.2 49.4541 18.48 49.4141 23.88ZM44.0941 24.44C44.1341 22.12 43.6941 19.64 42.4141 17.6C40.9341 15.2 38.6941 13.88 35.8541 13.88C34.0941 13.88 32.8141 14.44 32.2541 14.72C30.2541 15.8 27.7741 18.44 27.7741 23.72C27.7741 24.8 27.8141 30 31.7741 32.6C33.4941 33.72 35.2141 33.8 35.9341 33.8C36.4941 33.8 37.7741 33.76 39.1741 33.12C41.2541 32.16 43.9741 29.76 44.0941 24.44ZM76.5534 29.6C76.5534 32.16 75.7534 34.12 73.7934 35.8C70.3934 38.68 65.8334 38.72 64.5534 38.72C62.8734 38.72 57.4734 38.64 53.5534 34.52C53.0734 34 52.5534 33.32 52.1934 32.68L56.6334 29.6C57.8734 31.44 60.1934 33.84 65.3934 33.84C65.6334 33.84 66.6334 33.84 67.4734 33.64C68.0734 33.52 70.8334 32.76 70.8334 30.12C70.8334 29.84 70.7934 29.08 70.3134 28.44C69.3534 27.16 66.7934 26.8 65.3934 26.48L62.0334 25.72C60.5934 25.4 59.0334 25.08 57.7534 24.4C56.4334 23.72 53.7134 21.92 53.7134 17.84C53.7134 17.2 53.7934 15.36 54.7934 13.68C56.0734 11.52 59.1534 9.04 64.8734 9.04C67.3934 9.04 72.3534 9.44 76.2734 14.76L71.9134 18C71.0334 16.6 69.0334 13.8 64.5934 13.8C64.3134 13.8 60.7534 13.76 59.5934 15.96C59.3534 16.4 59.2734 16.8 59.2734 17.24C59.2734 17.72 59.3934 18.12 59.6334 18.52C60.3134 19.68 61.8734 20.04 64.4734 20.6L67.3934 21.24C70.0734 21.84 73.0334 22.64 74.9134 24.84C75.7134 25.72 76.5534 27 76.5534 29.6Z" fill="white"/>
</g>
<defs>
<filter id="filter0_d_56_146" x="21.959" y="46.2163" width="334.954" height="52.8723" filterUnits="userSpaceOnUse" color-interpolation-filters="sRGB">
<feFlood flood-opacity="0" result="BackgroundImageFix"/>
<feColorMatrix in="SourceAlpha" type="matrix" values="0 0 0 0 0 0 0 0 0 0 0 0 0 0 0 0 0 0 127 0" result="hardAlpha"/>
<feOffset dy="4"/>
<feGaussianBlur stdDeviation="2"/>
<feComposite in2="hardAlpha" operator="out"/>
<feColorMatrix type="matrix" values="0 0 0 0 0 0 0 0 0 0 0 0 0 0 0 0 0 0 0.25 0"/>
<feBlend mode="normal" in2="BackgroundImageFix" result="effect1_dropShadow_56_146"/>
<feBlend mode="normal" in="SourceGraphic" in2="effect1_dropShadow_56_146" result="shape"/>
</filter>
<filter id="filter1_d_56_146" x="0.280029" y="9.04004" width="80.2734" height="37.6802" filterUnits="userSpaceOnUse" color-interpolation-filters="sRGB">
<feFlood flood-opacity="0" result="BackgroundImageFix"/>
<feColorMatrix in="SourceAlpha" type="matrix" values="0 0 0 0 0 0 0 0 0 0 0 0 0 0 0 0 0 0 127 0" result="hardAlpha"/>
<feOffset dy="4"/>
<feGaussianBlur stdDeviation="2"/>
<feComposite in2="hardAlpha" operator="out"/>
<feColorMatrix type="matrix" values="0 0 0 0 0 0 0 0 0 0 0 0 0 0 0 0 0 0 0.25 0"/>
<feBlend mode="normal" in2="BackgroundImageFix" result="effect1_dropShadow_56_146"/>
<feBlend mode="normal" in="SourceGraphic" in2="effect1_dropShadow_56_146" result="shape"/>
</filter>
</defs>
</svg>
